<svg width="507" height="246" viewBox="0 0 507 246" fill="none" xmlns="http://www.w3.org/2000/svg">
<circle cx="123" cy="123" r="123" fill="#252729"/>
<path d="M91.6712 167V79.7273H126.103C132.694 79.7273 138.319 80.9062 142.978 83.2642C147.665 85.5937 151.231 88.9034 153.674 93.1932C156.146 97.4545 157.381 102.469 157.381 108.236C157.381 114.031 156.131 119.017 153.631 123.193C151.131 127.341 147.509 130.523 142.765 132.739C138.049 134.955 132.339 136.062 125.634 136.062H102.58V121.233H122.651C126.174 121.233 129.1 120.75 131.43 119.784C133.759 118.818 135.492 117.369 136.629 115.438C137.793 113.506 138.376 111.105 138.376 108.236C138.376 105.338 137.793 102.895 136.629 100.906C135.492 98.9176 133.745 97.4119 131.387 96.3892C129.058 95.3381 126.117 94.8125 122.566 94.8125H110.123V167H91.6712ZM138.802 127.284L160.492 167H140.123L118.901 127.284H138.802ZM250.62 123.364C250.62 132.881 248.816 140.977 245.208 147.653C241.629 154.33 236.742 159.429 230.549 162.952C224.384 166.446 217.452 168.193 209.754 168.193C201.998 168.193 195.038 166.432 188.873 162.909C182.708 159.386 177.836 154.287 174.256 147.611C170.677 140.935 168.887 132.852 168.887 123.364C168.887 113.847 170.677 105.75 174.256 99.0739C177.836 92.3977 182.708 87.3125 188.873 83.8182C195.038 80.2955 201.998 78.5341 209.754 78.5341C217.452 78.5341 224.384 80.2955 230.549 83.8182C236.742 87.3125 241.629 92.3977 245.208 99.0739C248.816 105.75 250.62 113.847 250.62 123.364ZM231.913 123.364C231.913 117.199 230.989 112 229.143 107.767C227.325 103.534 224.754 100.324 221.43 98.1364C218.106 95.9489 214.214 94.8551 209.754 94.8551C205.293 94.8551 201.401 95.9489 198.077 98.1364C194.754 100.324 192.168 103.534 190.322 107.767C188.504 112 187.594 117.199 187.594 123.364C187.594 129.528 188.504 134.727 190.322 138.96C192.168 143.193 194.754 146.403 198.077 148.591C201.401 150.778 205.293 151.872 209.754 151.872C214.214 151.872 218.106 150.778 221.43 148.591C224.754 146.403 227.325 143.193 229.143 138.96C230.989 134.727 231.913 129.528 231.913 123.364Z" fill="white"/>
<path d="M264.288 167V79.7273H299.232C305.652 79.7273 311.007 80.679 315.297 82.5824C319.587 84.4858 322.811 87.1278 324.97 90.5085C327.129 93.8608 328.209 97.7244 328.209 102.099C328.209 105.509 327.527 108.506 326.163 111.091C324.8 113.648 322.925 115.75 320.538 117.398C318.18 119.017 315.482 120.168 312.442 120.849V121.702C315.766 121.844 318.876 122.781 321.774 124.514C324.7 126.247 327.072 128.676 328.891 131.801C330.709 134.898 331.618 138.591 331.618 142.881C331.618 147.511 330.467 151.645 328.166 155.281C325.893 158.889 322.527 161.744 318.067 163.847C313.607 165.949 308.109 167 301.575 167H264.288ZM282.74 151.915H297.783C302.925 151.915 306.675 150.935 309.033 148.974C311.391 146.986 312.57 144.344 312.57 141.048C312.57 138.634 311.987 136.503 310.822 134.656C309.658 132.81 307.996 131.361 305.837 130.31C303.706 129.259 301.163 128.733 298.209 128.733H282.74V151.915ZM282.74 116.247H296.419C298.947 116.247 301.192 115.807 303.152 114.926C305.141 114.017 306.703 112.739 307.839 111.091C309.004 109.443 309.587 107.469 309.587 105.168C309.587 102.014 308.464 99.4716 306.22 97.5398C304.004 95.608 300.851 94.642 296.76 94.642H282.74V116.247ZM362.076 79.7273V167H343.624V79.7273H362.076ZM450.254 79.7273V167H434.317L396.348 112.071H395.709V167H377.257V79.7273H393.45L431.121 134.614H431.888V79.7273H450.254Z" fill="black"/>
</svg>
