<svg width="181" height="181" viewBox="0 0 181 181" fill="none" xmlns="http://www.w3.org/2000/svg">
<path fill-rule="evenodd" clip-rule="evenodd" d="M180.547 90.0627C180.547 139.768 140.253 180.063 90.5466 180.063C40.84 180.063 0.546631 139.768 0.546631 90.0627C0.546631 40.356 40.84 0.0626737 90.5466 0.0626737C140.253 0.0626737 180.547 40.356 180.547 90.0627Z" fill="#010201"/>
<path fill-rule="evenodd" clip-rule="evenodd" d="M122.293 137.279C121.707 133.808 118.68 117.177 111.227 96.7147C129.08 93.8947 144.707 98.5214 146.653 99.1734C144.2 115.009 135.093 128.675 122.293 137.279ZM90.5465 147.04C77.3865 147.04 65.24 142.557 55.6266 135.037C56.64 132.94 68.1999 110.671 100.307 99.4627C100.453 99.3907 100.52 99.3907 100.667 99.3174C108.693 120.071 111.947 137.496 112.813 142.484C105.947 145.449 98.4265 147.04 90.5465 147.04ZM33.5732 90.1347C33.5732 89.556 33.5732 88.9773 33.5732 88.4C36.0266 88.4707 63.6533 88.8333 92.0666 80.3C93.7333 83.4827 95.24 86.7374 96.6933 89.9907C95.9733 90.2067 95.1732 90.424 94.4532 90.64C65.0932 100.113 49.4799 125.999 48.1732 128.168C39.1332 118.117 33.5732 104.741 33.5732 90.1347ZM66.3199 38.58C67.8399 40.6054 77.9599 54.704 87.4399 71.48C60.8266 78.5667 37.3333 78.4214 34.7999 78.4214C38.4799 60.7787 50.4132 46.1 66.3199 38.58ZM90.5465 33.2294C105.013 33.2294 118.24 38.652 128.293 47.5467C127.28 48.992 118.68 60.4894 98.4266 68.0814C89.1066 50.9454 78.7599 36.9174 77.1732 34.748C81.4399 33.736 85.9199 33.2294 90.5465 33.2294ZM134.587 54.1267C142.533 63.8147 147.307 76.18 147.453 89.556C145.573 89.1947 126.773 85.3627 107.827 87.748C107.4 86.808 107.027 85.7974 106.6 84.784C105.44 82.036 104.147 79.216 102.84 76.5414C123.813 68.0094 133.347 55.7174 134.587 54.1267ZM90.5465 23.396C53.7465 23.396 23.8799 53.2587 23.8799 90.0627C23.8799 126.867 53.7465 156.729 90.5465 156.729C127.28 156.729 157.213 126.867 157.213 90.0627C157.213 53.2587 127.28 23.396 90.5465 23.396Z" fill="white"/>
</svg>
