<svg width="181" height="181" viewBox="0 0 181 181" fill="none" xmlns="http://www.w3.org/2000/svg">
<path d="M180.66 90.1653C180.66 139.871 140.366 180.165 90.6602 180.165C40.9549 180.165 0.660156 139.871 0.660156 90.1653C0.660156 40.4599 40.9549 0.165274 90.6602 0.165274C140.366 0.165274 180.66 40.4599 180.66 90.1653Z" fill="#010201"/>
<path d="M97.6242 77.8867C99.1015 76.2267 100.32 74.5401 101.839 73.1094C106.506 68.7107 112.027 66.4907 118.472 66.5454C122.015 66.5747 125.518 66.8307 128.932 67.8187C136.744 70.0774 141.284 75.4547 143.448 83.0854C145.072 88.8081 145.371 94.684 145.381 100.577C145.403 113.011 145.346 125.443 145.372 137.876C145.375 139.04 145.049 139.345 143.903 139.335C137.499 139.283 131.092 139.281 124.688 139.337C123.562 139.347 123.318 138.997 123.322 137.933C123.358 126.103 123.366 114.273 123.328 102.443C123.318 99.4787 123.129 96.516 122.297 93.6334C120.765 88.324 116.965 85.6187 111.403 85.9121C103.807 86.3134 99.8575 90.0747 98.8895 97.7974C98.6575 99.6427 98.5482 101.488 98.5495 103.347C98.5602 114.852 98.5375 126.357 98.5801 137.861C98.5841 139.009 98.2975 139.348 97.1255 139.337C90.6748 139.28 84.2215 139.287 77.7708 139.332C76.7375 139.34 76.4375 139.061 76.4389 138.015C76.4682 115.237 76.4682 92.4587 76.4375 69.68C76.4362 68.5534 76.8055 68.292 77.8708 68.3C83.9975 68.3454 90.1255 68.3507 96.2509 68.2961C97.3789 68.2867 97.6695 68.6507 97.6442 69.7187C97.5815 72.4401 97.6242 75.164 97.6242 77.8867Z" fill="#FEFEFE"/>
<path d="M62.5307 103.919C62.5307 115.187 62.512 126.456 62.5573 137.725C62.5627 138.977 62.2507 139.356 60.9547 139.341C54.5533 139.271 48.1493 139.288 41.7467 139.332C40.7213 139.34 40.412 139.083 40.4133 138.023C40.444 115.207 40.4413 92.3907 40.4187 69.5747C40.4173 68.6307 40.6467 68.2947 41.6493 68.3001C48.144 68.3427 54.64 68.3547 61.1347 68.2934C62.3827 68.2801 62.5534 68.7654 62.5507 69.8348C62.52 81.1961 62.5307 92.5574 62.5307 103.919Z" fill="#FEFEFE"/>
<path d="M64.2974 45.6906C64.3027 52.7653 58.5601 58.5293 51.5027 58.532C44.5334 58.5346 38.7427 52.7653 38.72 45.8C38.696 38.7586 44.4841 32.96 51.5281 32.9666C58.5241 32.9733 64.2894 38.7186 64.2974 45.6906Z" fill="#FEFEFE"/>
</svg>
