<svg width="181" height="181" viewBox="0 0 181 181" fill="none" xmlns="http://www.w3.org/2000/svg">
<path fill-rule="evenodd" clip-rule="evenodd" d="M180.547 90.4746C180.547 140.18 140.253 180.475 90.5466 180.475C40.84 180.475 0.546631 140.18 0.546631 90.4746C0.546631 40.7679 40.84 0.4746 90.5466 0.4746C140.253 0.4746 180.547 40.7679 180.547 90.4746Z" fill="#010201"/>
<path d="M72.3601 142.308C116.32 142.308 140.36 105.891 140.36 74.3121C140.36 73.2775 140.333 72.2468 140.293 71.2228C144.96 67.8495 149.013 63.6401 152.213 58.8494C147.933 60.7507 143.32 62.0335 138.493 62.6108C143.427 59.6535 147.213 54.9708 149 49.3908C144.373 52.1295 139.267 54.1201 133.827 55.1921C129.453 50.5468 123.253 47.6414 116.373 47.6414C103.173 47.6414 92.48 58.3441 92.48 71.5374C92.48 73.4134 92.6801 75.2374 93.0934 76.9868C73.2268 75.9881 55.6267 66.4788 43.84 52.0188C41.7867 55.5481 40.6001 59.6535 40.6001 64.0295C40.6001 72.3215 44.8134 79.6402 51.24 83.9228C47.32 83.8015 43.6267 82.7241 40.4133 80.9321C40.4 81.0321 40.4001 81.1321 40.4001 81.2374C40.4001 92.8121 48.64 102.475 59.5734 104.667C57.5734 105.212 55.4533 105.507 53.28 105.507C51.7333 105.507 50.24 105.355 48.7867 105.076C51.8267 114.571 60.6534 121.48 71.1067 121.675C62.9334 128.084 52.6268 131.904 41.4268 131.904C39.5068 131.904 37.6001 131.795 35.7334 131.573C46.3067 138.351 58.8668 142.308 72.3601 142.308Z" fill="white"/>
</svg>
